# Blender v2.78 (sub 0) OBJ File: 'space-ship.blend'
# www.blender.org
mtllib space-ship.mtl
o Plane
v -0.038095 -0.650000 0.000000
v -0.688095 -1.000000 0.000000
v -0.688095 -0.800000 0.000000
v -0.188095 -0.350000 0.100000
v 0.161905 -0.500000 0.200000
v 0.711905 -0.500000 0.000000
v 0.711905 -0.650000 0.000000
v -0.088095 -0.150000 0.100000
v -0.488095 -0.300000 0.000000
v -0.038095 0.650000 0.000000
v -0.688095 1.000000 0.000000
v -0.688095 0.800000 0.000000
v 1.311905 0.000000 0.000000
v -0.188095 0.350000 0.100000
v -0.038095 0.000000 0.400000
v 0.161905 0.500000 0.200000
v 0.711905 0.500000 0.000000
v 0.711905 0.650000 0.000000
v -0.088095 0.150000 0.100000
v -0.488095 0.300000 0.000000
v -0.488095 -0.000000 0.100000
v 0.000000 0.000000 0.000000
v -0.500000 -0.800000 -0.100000
v -0.500000 0.800000 -0.100000
vn 0.2743 -0.2606 0.9257
vn 0.2743 0.2606 0.9257
vn -0.8031 0.4685 0.3681
vn -0.8031 -0.4685 0.3681
vn -0.3107 -0.8284 0.4660
vn -0.3107 0.8284 0.4660
vn -0.1178 0.3140 0.9421
vn -0.1178 -0.3140 0.9421
vn 0.0659 -0.2857 0.9560
vn 0.0000 0.0000 1.0000
vn -0.4227 -0.4697 0.7750
vn 0.0000 -0.8000 0.6000
vn 0.3417 0.0000 0.9398
vn 0.2276 -0.1138 -0.9671
vn -0.2276 -0.1138 0.9671
vn 0.0000 0.8000 0.6000
vn -0.4227 0.4697 0.7750
vn 0.0659 0.2857 0.9560
vn -0.0000 0.3714 -0.9285
vn 0.0000 -0.3714 -0.9285
vn -0.2537 -0.4289 -0.8670
vn -0.2537 0.4289 -0.8670
vn 0.4056 0.6599 -0.6325
vn 0.4056 -0.6599 -0.6325
vn -1.0000 -0.0000 -0.0000
vn 0.0000 0.0000 -1.0000
vn -0.0579 0.2895 -0.9554
vn 0.1964 0.8184 0.5401
vn 0.1964 -0.8184 0.5401
vn -0.1104 0.0000 -0.9939
vn 0.0000 -0.3162 -0.9487
vn 0.3578 -0.6645 -0.6560
vn -0.4694 0.0000 -0.8830
vn 0.0867 0.3538 -0.9313
vn -0.3814 0.5831 -0.7173
vn 0.3578 0.6645 -0.6560
vn 0.0867 -0.3538 -0.9313
vn -0.3814 -0.5831 -0.7173
usemtl Material
s off
f 5//1 13//1 15//1
f 15//2 13//2 16//2
f 19//3 15//3 16//3
f 8//4 5//4 15//4
f 8//5 15//5 21//5
f 21//6 15//6 19//6
f 20//7 21//7 19//7
f 9//8 8//8 21//8
f 4//9 3//9 1//9
f 3//10 2//10 1//10
f 5//11 4//11 1//11
f 1//12 7//12 5//12
f 6//13 5//13 7//13
f 8//14 5//14 4//14
f 19//15 16//15 14//15
f 17//13 18//13 16//13
f 10//16 16//16 18//16
f 16//17 10//17 14//17
f 14//18 10//18 12//18
f 12//10 10//10 11//10
f 16//19 13//19 22//19
f 5//20 22//20 13//20
f 8//21 22//21 5//21
f 22//22 19//22 16//22
f 20//23 19//23 22//23
f 9//24 22//24 8//24
f 21//25 20//25 9//25
f 20//26 22//26 9//26
f 7//26 1//26 6//26
f 4//27 6//27 1//27
f 5//28 6//28 4//28
f 14//29 17//29 16//29
f 18//30 17//30 14//30
f 10//31 18//31 14//31
f 1//32 2//32 23//32
f 2//33 3//33 23//33
f 4//34 1//34 23//34
f 3//35 4//35 23//35
f 11//33 24//33 12//33
f 10//36 24//36 11//36
f 14//37 24//37 10//37
f 12//38 24//38 14//38
l 22 21
