# Blender v2.78 (sub 0) OBJ File: 'title.blend'
# www.blender.org
mtllib title.mtl
o Plane.023
v -7.634607 -1.806353 0.921033
v -4.719703 -1.806353 -1.993871
v -7.634607 -1.806353 -2.722597
v 7.668639 -1.806353 -2.722597
v -4.719703 -1.806353 -2.722597
v -6.905881 -1.806353 0.921033
v 2.567557 -1.806353 -1.993871
v -6.905881 -1.806353 1.649759
v 7.668639 -1.806353 1.649759
v 2.567557 -1.806353 -2.722597
v 4.753736 -1.806353 -1.993871
v 4.753736 -1.806353 -2.722597
v -0.347347 -1.806353 -1.993871
v -0.347347 -1.806353 -2.722597
v -7.634607 -2.352897 0.921033
v -4.719703 -2.352897 -1.993871
v -7.634607 -2.352897 -2.722597
v 7.668639 -2.352897 -2.722597
v -4.719703 -2.352897 -2.722597
v -6.905881 -2.352897 0.921033
v 2.567557 -2.352897 -1.993871
v -6.905881 -2.352897 1.649759
v 7.668639 -2.352897 1.649759
v 2.567557 -2.352897 -2.722597
v 4.753736 -2.352897 -1.993871
v 4.753736 -2.352897 -2.722597
v -0.347347 -2.352897 -1.993871
v -0.347347 -2.352897 -2.722597
vn 0.0000 1.0000 0.0000
vn 0.0000 -1.0000 -0.0000
vn 0.0000 0.0000 -1.0000
vn 1.0000 0.0000 0.0000
vn -1.0000 0.0000 0.0000
vn 0.0000 0.0000 1.0000
usemtl Background
s off
f 9//1 7//1 13//1
f 27//2 21//2 23//2
f 10//3 28//3 14//3
f 7//4 24//4 10//4
f 6//5 22//5 8//5
f 3//5 15//5 1//5
f 8//6 23//6 9//6
f 13//3 16//3 2//3
f 4//3 26//3 12//3
f 9//4 18//4 4//4
f 12//5 25//5 11//5
f 5//3 17//3 3//3
f 11//3 21//3 7//3
f 2//4 19//4 5//4
f 14//5 27//5 13//5
f 1//6 20//6 6//6
f 5//1 3//1 2//1
f 6//1 8//1 2//1
f 3//1 1//1 6//1
f 2//1 3//1 6//1
f 9//1 4//1 11//1
f 4//1 12//1 11//1
f 2//1 8//1 13//1
f 10//1 14//1 13//1
f 13//1 8//1 9//1
f 9//1 11//1 7//1
f 7//1 10//1 13//1
f 15//2 17//2 20//2
f 17//2 19//2 16//2
f 23//2 22//2 27//2
f 20//2 17//2 16//2
f 27//2 28//2 24//2
f 20//2 16//2 22//2
f 26//2 18//2 25//2
f 25//2 18//2 23//2
f 22//2 16//2 27//2
f 27//2 24//2 21//2
f 21//2 25//2 23//2
f 10//3 24//3 28//3
f 7//4 21//4 24//4
f 6//5 20//5 22//5
f 3//5 17//5 15//5
f 8//6 22//6 23//6
f 13//3 27//3 16//3
f 4//3 18//3 26//3
f 9//4 23//4 18//4
f 12//5 26//5 25//5
f 5//3 19//3 17//3
f 11//3 25//3 21//3
f 2//4 16//4 19//4
f 14//5 28//5 27//5
f 1//6 15//6 20//6
o Plane.021
v 5.846824 -1.259808 -0.172055
v 6.575550 -1.259808 -0.172055
v 5.846824 -1.259808 -0.900781
v 6.575550 -1.259808 -0.900781
v 6.575550 -1.259808 1.285397
v 7.304276 -1.259808 1.285397
v 6.575550 -1.259808 -0.172055
v 7.304276 -1.259808 -0.172055
v 6.575550 -1.259808 -0.900781
v 7.304276 -1.259808 -0.900781
v 6.575550 -1.259808 -2.358233
v 7.304276 -1.259808 -2.358233
v 5.118098 -1.259808 1.285397
v 5.846824 -1.259808 1.285397
v 5.118098 -1.259808 -0.172055
v 5.846824 -1.259808 -0.172055
v 5.118098 -1.259808 -0.900781
v 5.846824 -1.259808 -0.900781
v 5.118098 -1.259808 -2.358233
v 5.846824 -1.259808 -2.358233
v 5.846824 -1.806353 -0.172055
v 6.575550 -1.806353 -0.172055
v 5.846824 -1.806353 -0.900781
v 6.575550 -1.806353 -0.900781
v 6.575550 -1.806353 1.285397
v 7.304276 -1.806353 1.285397
v 6.575550 -1.806353 -0.172055
v 7.304276 -1.806353 -0.172055
v 6.575550 -1.806353 -0.900781
v 7.304276 -1.806353 -0.900781
v 6.575550 -1.806353 -2.358233
v 7.304276 -1.806353 -2.358233
v 5.118098 -1.806353 1.285397
v 5.846824 -1.806353 1.285397
v 5.118098 -1.806353 -0.172055
v 5.846824 -1.806353 -0.172055
v 5.118098 -1.806353 -0.900781
v 5.846824 -1.806353 -0.900781
v 5.118098 -1.806353 -2.358233
v 5.846824 -1.806353 -2.358233
vn 0.0000 1.0000 0.0000
vn 0.0000 -1.0000 0.0000
vn 0.0000 0.0000 1.0000
vn 1.0000 0.0000 0.0000
vn 0.0000 0.0000 -1.0000
vn -1.0000 0.0000 0.0000
usemtl Word
s off
f 30//7 31//7 29//7
f 34//7 35//7 33//7
f 38//7 39//7 37//7
f 42//7 43//7 41//7
f 46//7 47//7 45//7
f 51//8 50//8 49//8
f 55//8 54//8 53//8
f 59//8 58//8 57//8
f 63//8 62//8 61//8
f 67//8 66//8 65//8
f 61//9 42//9 41//9
f 54//10 36//10 34//10
f 62//10 44//10 42//10
f 56//11 35//11 36//11
f 51//12 29//12 31//12
f 64//11 43//11 44//11
f 59//12 37//12 39//12
f 49//9 30//9 29//9
f 67//12 45//12 47//12
f 57//9 38//9 37//9
f 50//10 32//10 30//10
f 65//9 46//9 45//9
f 58//10 40//10 38//10
f 52//11 31//11 32//11
f 66//10 48//10 46//10
f 60//11 39//11 40//11
f 55//12 33//12 35//12
f 68//11 47//11 48//11
f 63//12 41//12 43//12
f 53//9 34//9 33//9
f 30//7 32//7 31//7
f 34//7 36//7 35//7
f 38//7 40//7 39//7
f 42//7 44//7 43//7
f 46//7 48//7 47//7
f 51//8 52//8 50//8
f 55//8 56//8 54//8
f 59//8 60//8 58//8
f 63//8 64//8 62//8
f 67//8 68//8 66//8
f 61//9 62//9 42//9
f 54//10 56//10 36//10
f 62//10 64//10 44//10
f 56//11 55//11 35//11
f 51//12 49//12 29//12
f 64//11 63//11 43//11
f 59//12 57//12 37//12
f 49//9 50//9 30//9
f 67//12 65//12 45//12
f 57//9 58//9 38//9
f 50//10 52//10 32//10
f 65//9 66//9 46//9
f 58//10 60//10 40//10
f 52//11 51//11 31//11
f 66//10 68//10 48//10
f 60//11 59//11 39//11
f 55//12 53//12 33//12
f 68//11 67//11 47//11
f 63//12 61//12 41//12
f 53//9 54//9 34//9
o Plane.014
v 2.567557 -1.259808 1.285396
v 3.296283 -1.259808 1.285396
v 2.567557 -1.259808 -1.629508
v 3.296283 -1.259808 -1.629508
v 4.753735 -1.259808 -0.900782
v 4.753735 -1.259808 -1.629508
v 3.296283 -1.259808 -0.900782
v 3.296283 -1.259808 -1.629508
v 3.296283 -1.259808 0.556670
v 4.025009 -1.259808 0.556670
v 3.296283 -1.259808 -0.172056
v 4.025009 -1.259808 -0.172056
v 4.753735 -1.259808 1.285396
v 4.753735 -1.259808 0.556670
v 3.296283 -1.259808 1.285396
v 3.296283 -1.259808 0.556670
v 2.567557 -1.806353 1.285396
v 3.296283 -1.806353 1.285396
v 2.567557 -1.806353 -1.629508
v 3.296283 -1.806353 -1.629508
v 4.753735 -1.806353 -0.900782
v 4.753735 -1.806353 -1.629508
v 3.296283 -1.806353 -0.900782
v 3.296283 -1.806353 -1.629508
v 3.296283 -1.806353 0.556670
v 4.025009 -1.806353 0.556670
v 3.296283 -1.806353 -0.172056
v 4.025009 -1.806353 -0.172056
v 4.753735 -1.806353 1.285396
v 4.753735 -1.806353 0.556670
v 3.296283 -1.806353 1.285396
v 3.296283 -1.806353 0.556670
vn 0.0000 1.0000 0.0000
vn 0.0000 -1.0000 0.0000
vn 1.0000 0.0000 0.0000
vn 0.0000 0.0000 -1.0000
vn -1.0000 0.0000 0.0000
vn 0.0000 0.0000 1.0000
usemtl Word
s off
f 70//13 71//13 69//13
f 74//13 75//13 73//13
f 78//13 79//13 77//13
f 82//13 83//13 81//13
f 87//14 86//14 85//14
f 91//14 90//14 89//14
f 95//14 94//14 93//14
f 99//14 98//14 97//14
f 97//15 82//15 81//15
f 90//16 76//16 74//16
f 98//16 84//16 82//16
f 92//17 75//17 76//17
f 87//17 69//17 71//17
f 100//17 83//17 84//17
f 95//17 77//17 79//17
f 85//18 70//18 69//18
f 93//18 78//18 77//18
f 86//15 72//15 70//15
f 94//15 80//15 78//15
f 88//16 71//16 72//16
f 96//16 79//16 80//16
f 91//18 73//18 75//18
f 99//18 81//18 83//18
f 89//15 74//15 73//15
f 70//13 72//13 71//13
f 74//13 76//13 75//13
f 78//13 80//13 79//13
f 82//13 84//13 83//13
f 87//14 88//14 86//14
f 91//14 92//14 90//14
f 95//14 96//14 94//14
f 99//14 100//14 98//14
f 97//15 98//15 82//15
f 90//16 92//16 76//16
f 98//16 100//16 84//16
f 92//17 91//17 75//17
f 87//17 85//17 69//17
f 100//17 99//17 83//17
f 95//17 93//17 77//17
f 85//18 86//18 70//18
f 93//18 94//18 78//18
f 86//15 88//15 72//15
f 94//15 96//15 80//15
f 88//16 87//16 71//16
f 96//16 95//16 79//16
f 91//18 89//18 73//18
f 99//18 97//18 81//18
f 89//15 90//15 74//15
o Plane.013
v 2.203195 -1.259808 -1.629508
v 2.203195 -1.259808 -2.358234
v 0.017016 -1.259808 -1.629508
v 0.017016 -1.259808 -2.358234
v 0.745743 -1.259808 1.285396
v 1.474469 -1.259808 1.285396
v 0.745742 -1.259808 -1.629508
v 1.474469 -1.259808 -1.629508
v 2.203195 -1.806353 -1.629508
v 2.203195 -1.806353 -2.358234
v 0.017016 -1.806353 -1.629508
v 0.017016 -1.806353 -2.358234
v 0.745743 -1.806353 1.285396
v 1.474469 -1.806353 1.285396
v 0.745742 -1.806353 -1.629508
v 1.474469 -1.806353 -1.629508
vn 0.0000 1.0000 0.0000
vn 0.0000 -1.0000 0.0000
vn -1.0000 0.0000 0.0000
vn 0.0000 0.0000 -1.0000
vn 0.0000 0.0000 1.0000
vn 1.0000 0.0000 0.0000
usemtl Word
s off
f 102//19 103//19 101//19
f 106//19 107//19 105//19
f 111//20 110//20 109//20
f 115//20 114//20 113//20
f 115//21 105//21 107//21
f 110//22 104//22 102//22
f 111//23 101//23 103//23
f 116//22 107//22 108//22
f 113//23 106//23 105//23
f 112//21 103//21 104//21
f 109//24 102//24 101//24
f 114//24 108//24 106//24
f 102//19 104//19 103//19
f 106//19 108//19 107//19
f 111//20 112//20 110//20
f 115//20 116//20 114//20
f 115//21 113//21 105//21
f 110//22 112//22 104//22
f 111//23 109//23 101//23
f 116//22 115//22 107//22
f 113//23 114//23 106//23
f 112//21 111//21 103//21
f 109//24 110//24 102//24
f 114//24 116//24 108//24
o Plane.011
v -0.711710 -1.259808 1.285396
v 0.017016 -1.259808 1.285396
v 0.017016 -1.259808 0.556670
v -1.440436 -1.259808 0.556670
v -0.711710 -1.259808 0.556670
v -1.440436 -1.259808 -0.172056
v -0.711710 -1.259808 -0.172056
v 0.017016 -1.259808 -0.172056
v -0.711710 -1.259808 -0.900782
v 0.017016 -1.259808 -0.900782
v -1.440436 -1.259808 -0.900782
v -1.440436 -1.259808 -1.629508
v -0.711710 -1.259808 -1.629508
v -2.169162 -1.259808 1.285396
v -1.440436 -1.259808 1.285396
v -2.169162 -1.259808 -1.629508
v -0.711710 -1.846566 1.285396
v 0.017016 -1.846566 1.285396
v -0.711710 -1.846566 0.556670
v 0.017016 -1.846566 0.556670
v -1.440436 -1.854382 0.556670
v -0.711710 -1.854382 0.556670
v -1.440436 -1.854382 -0.172056
v -0.711710 -1.854382 -0.172056
v -0.711710 -1.806353 -0.172056
v 0.017016 -1.806353 -0.172056
v -0.711710 -1.806353 -0.900782
v 0.017016 -1.806353 -0.900782
v -1.440436 -1.880911 -0.900782
v -0.711710 -1.880911 -0.900782
v -1.440436 -1.880911 -1.629508
v -0.711710 -1.880911 -1.629508
v -2.169162 -1.806353 1.285396
v -1.440436 -1.806353 1.285396
v -2.169162 -1.806353 -1.629508
v -1.440436 -1.806353 -1.629508
vn 0.0000 1.0000 0.0000
vn 0.0000 -1.0000 0.0000
vn 0.0000 0.0000 1.0000
vn 1.0000 0.0000 0.0000
vn 0.0000 0.0000 -1.0000
vn -1.0000 0.0000 0.0000
usemtl Word
s off
f 118//25 121//25 117//25
f 121//25 122//25 120//25
f 124//25 125//25 123//25
f 125//25 128//25 127//25
f 131//25 132//25 130//25
f 135//26 134//26 133//26
f 139//26 138//26 137//26
f 143//26 142//26 141//26
f 147//26 146//26 145//26
f 151//26 150//26 149//26
f 145//27 125//27 127//27
f 138//28 123//28 121//28
f 146//28 129//28 125//28
f 140//29 122//29 123//29
f 135//30 117//30 121//30
f 148//29 128//29 129//29
f 143//30 123//30 125//30
f 133//27 118//27 117//27
f 151//30 130//30 132//30
f 141//27 124//27 123//27
f 134//28 119//28 118//28
f 149//27 131//27 130//27
f 142//28 126//28 124//28
f 136//29 121//29 119//29
f 150//28 128//28 131//28
f 144//29 125//29 126//29
f 139//30 120//30 122//30
f 152//29 132//29 128//29
f 147//30 127//30 128//30
f 137//27 121//27 120//27
f 118//25 119//25 121//25
f 121//25 123//25 122//25
f 124//25 126//25 125//25
f 125//25 129//25 128//25
f 131//25 128//25 132//25
f 135//26 136//26 134//26
f 139//26 140//26 138//26
f 143//26 144//26 142//26
f 147//26 148//26 146//26
f 151//26 152//26 150//26
f 145//27 146//27 125//27
f 138//28 140//28 123//28
f 146//28 148//28 129//28
f 140//29 139//29 122//29
f 135//30 133//30 117//30
f 148//29 147//29 128//29
f 143//30 141//30 123//30
f 133//27 134//27 118//27
f 151//30 149//30 130//30
f 141//27 142//27 124//27
f 134//28 136//28 119//28
f 149//27 150//27 131//27
f 142//28 144//28 126//28
f 136//29 135//29 121//29
f 150//28 152//28 128//28
f 144//29 143//29 125//29
f 139//30 137//30 120//30
f 152//29 151//29 132//29
f 147//30 145//30 127//30
f 137//27 138//27 121//27
o Plane.006
v -2.533525 -1.259808 1.285396
v -2.533525 -1.259808 0.556670
v -3.990977 -1.259808 1.285396
v -3.990977 -1.259808 0.556670
v -3.990977 -1.259808 0.556670
v -3.262251 -1.259808 0.556670
v -3.990977 -1.259808 -0.172056
v -3.262251 -1.259808 -0.172056
v -2.533525 -1.259808 -0.900782
v -2.533525 -1.259808 -1.629508
v -3.990977 -1.259808 -0.900782
v -3.990977 -1.259808 -1.629508
v -4.719703 -1.259808 1.285396
v -3.990977 -1.259808 1.285396
v -4.719703 -1.259808 -1.629508
v -3.990977 -1.259808 -1.629508
v -2.533525 -1.806353 1.285396
v -2.533525 -1.806353 0.556670
v -3.990977 -1.806353 1.285396
v -3.990977 -1.806353 0.556670
v -3.990977 -1.806353 0.556670
v -3.262251 -1.806353 0.556670
v -3.990977 -1.806353 -0.172056
v -3.262251 -1.806353 -0.172056
v -2.533525 -1.806353 -0.900782
v -2.533525 -1.806353 -1.629508
v -3.990977 -1.806353 -0.900782
v -3.990977 -1.806353 -1.629508
v -4.719703 -1.806353 1.285396
v -3.990977 -1.806353 1.285396
v -4.719703 -1.806353 -1.629508
v -3.990977 -1.806353 -1.629508
vn 0.0000 1.0000 0.0000
vn 0.0000 -1.0000 0.0000
vn 0.0000 0.0000 1.0000
vn 1.0000 0.0000 0.0000
vn 0.0000 0.0000 -1.0000
vn -1.0000 0.0000 0.0000
usemtl Word
s off
f 154//31 155//31 153//31
f 158//31 159//31 157//31
f 162//31 163//31 161//31
f 166//31 167//31 165//31
f 171//32 170//32 169//32
f 175//32 174//32 173//32
f 179//32 178//32 177//32
f 183//32 182//32 181//32
f 181//33 166//33 165//33
f 174//34 160//34 158//34
f 182//34 168//34 166//34
f 176//35 159//35 160//35
f 171//33 153//33 155//33
f 184//35 167//35 168//35
f 179//33 161//33 163//33
f 169//34 154//34 153//34
f 177//34 162//34 161//34
f 170//35 156//35 154//35
f 178//35 164//35 162//35
f 172//36 155//36 156//36
f 180//36 163//36 164//36
f 175//36 157//36 159//36
f 183//36 165//36 167//36
f 173//33 158//33 157//33
f 154//31 156//31 155//31
f 158//31 160//31 159//31
f 162//31 164//31 163//31
f 166//31 168//31 167//31
f 171//32 172//32 170//32
f 175//32 176//32 174//32
f 179//32 180//32 178//32
f 183//32 184//32 182//32
f 181//33 182//33 166//33
f 174//34 176//34 160//34
f 182//34 184//34 168//34
f 176//35 175//35 159//35
f 171//33 169//33 153//33
f 184//35 183//35 167//35
f 179//33 177//33 161//33
f 169//34 170//34 154//34
f 177//34 178//34 162//34
f 170//35 172//35 156//35
f 178//35 180//35 164//35
f 172//36 171//36 155//36
f 180//36 179//36 163//36
f 175//36 173//36 157//36
f 183//36 181//36 165//36
f 173//33 174//33 158//33
o Plane
v -5.812793 -1.259808 0.556670
v -5.084067 -1.259808 0.556670
v -5.812793 -1.259808 -2.358234
v -5.084067 -1.259808 -2.358234
v -6.541519 -1.259808 1.285397
v -5.812793 -1.259808 1.285397
v -6.541519 -1.259808 0.556670
v -5.812793 -1.259808 0.556670
v -7.270245 -1.259808 0.556670
v -6.541519 -1.259808 0.556670
v -7.270245 -1.259808 -2.358234
v -6.541519 -1.259808 -2.358234
v -5.812793 -1.806353 0.556670
v -5.084067 -1.806353 0.556670
v -5.812793 -1.806353 -2.358234
v -5.084067 -1.806353 -2.358234
v -6.541519 -1.806353 1.285397
v -5.812793 -1.806353 1.285397
v -6.541519 -1.806353 0.556670
v -5.812793 -1.806353 0.556670
v -7.270245 -1.806353 0.556670
v -6.541519 -1.806353 0.556670
v -7.270245 -1.806353 -2.358234
v -6.541519 -1.806353 -2.358234
vn 0.0000 1.0000 0.0000
vn 0.0000 -1.0000 0.0000
vn -1.0000 0.0000 0.0000
vn 0.0000 0.0000 -1.0000
vn 0.0000 0.0000 1.0000
vn 1.0000 0.0000 0.0000
usemtl Word
s off
f 186//37 187//37 185//37
f 190//37 191//37 189//37
f 194//37 195//37 193//37
f 199//38 198//38 197//38
f 203//38 202//38 201//38
f 207//38 206//38 205//38
f 203//39 189//39 191//39
f 208//40 195//40 196//40
f 197//41 186//41 185//41
f 207//39 193//39 195//39
f 201//41 190//41 189//41
f 198//42 188//42 186//42
f 205//41 194//41 193//41
f 202//42 192//42 190//42
f 200//40 187//40 188//40
f 206//42 196//42 194//42
f 199//39 185//39 187//39
f 204//40 191//40 192//40
f 186//37 188//37 187//37
f 190//37 192//37 191//37
f 194//37 196//37 195//37
f 199//38 200//38 198//38
f 203//38 204//38 202//38
f 207//38 208//38 206//38
f 203//39 201//39 189//39
f 208//40 207//40 195//40
f 197//41 198//41 186//41
f 207//39 205//39 193//39
f 201//41 202//41 190//41
f 198//42 200//42 188//42
f 205//41 206//41 194//41
f 202//42 204//42 192//42
f 200//40 199//40 187//40
f 206//42 208//42 196//42
f 199//39 197//39 185//39
f 204//40 203//40 191//40
